<svg width="196" height="196" viewBox="0 0 196 196" fill="none" xmlns="http://www.w3.org/2000/svg">
<g clip-path="url(#clip0_302_307)">
<g clip-path="url(#clip1_302_307)" filter="url(#filter0_dddddd_302_307)">
<g clip-path="url(#clip2_302_307)">
<path d="M152.831 88.1294C150.725 77.5097 145.276 67.8425 137.282 60.5411C129.287 53.2398 119.167 48.6873 108.401 47.5493C97.6339 46.4113 86.7856 48.7475 77.4417 54.2163C68.0978 59.6851 60.7485 67.9997 56.4683 77.9443C51.6683 77.3913 46.8059 77.8239 42.1789 79.2155C37.5519 80.6071 33.2575 82.9284 29.5589 86.0374C25.8602 89.1463 22.835 92.9775 20.6684 97.2963C18.5019 101.615 17.2397 106.331 16.959 111.154C16.6783 115.978 17.3851 120.808 19.036 125.349C20.687 129.89 23.2474 134.046 26.5605 137.563C29.8736 141.08 33.8697 143.884 38.3041 145.803C42.7385 147.722 47.5179 148.715 52.3496 148.723H148.723C156.444 148.732 163.88 145.805 169.524 140.537C175.168 135.268 178.599 128.051 179.121 120.348C179.644 112.645 177.218 105.031 172.337 99.0483C167.456 93.0661 160.483 89.1629 152.831 88.1294V88.1294Z" fill="#3873E2"/>
</g>
<path d="M86.6381 121.535C86.6381 126.019 82.0934 129.651 76.4936 129.651C70.8938 129.651 66.3491 126.019 66.3491 121.535C66.3491 117.056 70.8938 113.42 76.4936 113.42C82.0934 113.42 86.6381 117.056 86.6381 121.535ZM123.158 113.42C123.158 117.904 118.614 121.535 113.014 121.535C107.414 121.535 102.869 117.904 102.869 113.42C102.869 108.936 107.414 105.304 113.014 105.304C118.614 105.304 123.158 108.936 123.158 113.42Z" fill="white"/>
<path fill-rule="evenodd" clip-rule="evenodd" d="M119.101 113.42V76.8994H123.158V113.42H119.101ZM86.6381 80.9572V121.535H82.5803V80.9572H86.6381Z" fill="white"/>
<path d="M82.5803 80.5717C82.5803 79.5657 82.954 78.5956 83.6288 77.8496C84.3036 77.1036 85.2314 76.6348 86.2324 76.5342L118.695 73.2879C119.259 73.2312 119.829 73.2934 120.368 73.4705C120.906 73.6476 121.402 73.9356 121.823 74.3161C122.243 74.6965 122.579 75.1608 122.81 75.6792C123.04 76.1975 123.158 76.7583 123.158 77.3254V80.9572L82.5803 85.015V80.5717Z" fill="white"/>
</g>
</g>
<defs>
<filter id="filter0_dddddd_302_307" x="-13.7812" y="-15.3125" width="223.562" height="223.562" filterUnits="userSpaceOnUse" color-interpolation-filters="sRGB">
<feFlood flood-opacity="0" result="BackgroundImageFix"/>
<feColorMatrix in="SourceAlpha" type="matrix" values="0 0 0 0 0 0 0 0 0 0 0 0 0 0 0 0 0 0 127 0" result="hardAlpha"/>
<feOffset dy="-0.0423736"/>
<feGaussianBlur stdDeviation="0.423736"/>
<feColorMatrix type="matrix" values="0 0 0 0 0 0 0 0 0 0 0 0 0 0 0 0 0 0 0.07 0"/>
<feBlend mode="normal" in2="BackgroundImageFix" result="effect1_dropShadow_302_307"/>
<feColorMatrix in="SourceAlpha" type="matrix" values="0 0 0 0 0 0 0 0 0 0 0 0 0 0 0 0 0 0 127 0" result="hardAlpha"/>
<feOffset dy="-0.10183"/>
<feGaussianBlur stdDeviation="1.0183"/>
<feColorMatrix type="matrix" values="0 0 0 0 0 0 0 0 0 0 0 0 0 0 0 0 0 0 0.0503198 0"/>
<feBlend mode="normal" in2="effect1_dropShadow_302_307" result="effect2_dropShadow_302_307"/>
<feColorMatrix in="SourceAlpha" type="matrix" values="0 0 0 0 0 0 0 0 0 0 0 0 0 0 0 0 0 0 127 0" result="hardAlpha"/>
<feOffset dy="-0.191736"/>
<feGaussianBlur stdDeviation="1.91736"/>
<feColorMatrix type="matrix" values="0 0 0 0 0 0 0 0 0 0 0 0 0 0 0 0 0 0 0.0417275 0"/>
<feBlend mode="normal" in2="effect2_dropShadow_302_307" result="effect3_dropShadow_302_307"/>
<feColorMatrix in="SourceAlpha" type="matrix" values="0 0 0 0 0 0 0 0 0 0 0 0 0 0 0 0 0 0 127 0" result="hardAlpha"/>
<feOffset dy="-0.342025"/>
<feGaussianBlur stdDeviation="3.42025"/>
<feColorMatrix type="matrix" values="0 0 0 0 0 0 0 0 0 0 0 0 0 0 0 0 0 0 0.035 0"/>
<feBlend mode="normal" in2="effect3_dropShadow_302_307" result="effect4_dropShadow_302_307"/>
<feColorMatrix in="SourceAlpha" type="matrix" values="0 0 0 0 0 0 0 0 0 0 0 0 0 0 0 0 0 0 127 0" result="hardAlpha"/>
<feOffset dy="-0.63972"/>
<feGaussianBlur stdDeviation="6.3972"/>
<feColorMatrix type="matrix" values="0 0 0 0 0 0 0 0 0 0 0 0 0 0 0 0 0 0 0.0282725 0"/>
<feBlend mode="normal" in2="effect4_dropShadow_302_307" result="effect5_dropShadow_302_307"/>
<feColorMatrix in="SourceAlpha" type="matrix" values="0 0 0 0 0 0 0 0 0 0 0 0 0 0 0 0 0 0 127 0" result="hardAlpha"/>
<feOffset dy="-1.53125"/>
<feGaussianBlur stdDeviation="15.3125"/>
<feColorMatrix type="matrix" values="0 0 0 0 0 0 0 0 0 0 0 0 0 0 0 0 0 0 0.0196802 0"/>
<feBlend mode="normal" in2="effect5_dropShadow_302_307" result="effect6_dropShadow_302_307"/>
<feBlend mode="normal" in="SourceGraphic" in2="effect6_dropShadow_302_307" result="shape"/>
</filter>
<clipPath id="clip0_302_307">
<rect width="196" height="196" fill="white"/>
</clipPath>
<clipPath id="clip1_302_307">
<rect width="162.312" height="162.312" fill="white" transform="translate(16.8438 16.8438)"/>
</clipPath>
<clipPath id="clip2_302_307">
<rect width="162.312" height="162.312" fill="white" transform="translate(16.8438 16.8438)"/>
</clipPath>
</defs>
</svg>
